<?xml version="1.0" encoding="UTF-8" standalone="no"?>
<svg
   xmlns:dc="http://purl.org/dc/elements/1.1/"
   xmlns:cc="http://creativecommons.org/ns#"
   xmlns:rdf="http://www.w3.org/1999/02/22-rdf-syntax-ns#"
   xmlns="http://www.w3.org/2000/svg"
   viewBox="0 0 284 373.33334"
   height="373.33334"
   width="284"
   xml:space="preserve"
   id="svg2"
   version="1.1"><metadata
     id="metadata8"><rdf:RDF><cc:Work
         rdf:about=""><dc:format>image/svg+xml</dc:format><dc:type
           rdf:resource="http://purl.org/dc/dcmitype/StillImage" /></cc:Work></rdf:RDF></metadata><defs
     id="defs6" /><g
     transform="matrix(1.3333333,0,0,-1.3333333,0,373.33333)"
     id="g10"><g
       transform="scale(0.1)"
       id="g12"><path
         id="path14"
         style="fill:#999;fill-opacity:1;fill-rule:nonzero;stroke:none"
         d="m 1064.84,1430.62 c 311.29,0 563.71,306.53 563.71,684.69 0,378.13 -82.89,684.69 -563.71,684.69 -480.86,0 -563.711,-306.56 -563.711,-684.69 0,-378.16 252.391,-684.69 563.711,-684.69 z" /><path
         id="path16"
         style="fill:#999;fill-opacity:1;fill-rule:nonzero;stroke:none"
         d="m 0.121094,385.199 c -0.121094,23.039 -0.199219,6.481 0,0 z" /><path
         id="path18"
         style="fill:#999;fill-opacity:1;fill-rule:nonzero;stroke:none"
         d="m 2128.32,412.809 c -10.43,658.751 -96.48,846.451 -754.8,965.281 0,0 -92.7,-118.09 -308.68,-118.09 -216.012,0 -308.711,118.09 -308.711,118.09 C 105,1260.55 13.7109,1075.62 1.71875,434.219 0.738281,381.84 0.269531,379.102 0.121094,385.199 0.160156,373.789 0.199219,352.699 0.199219,315.98 0.199219,315.98 156.91,0 1064.84,0 c 907.89,0 1064.61,315.98 1064.61,315.98 0,23.59 0.04,40 0.04,51.168 -0.15,-3.75 -0.51,3.551 -1.17,45.661 z" /></g></g></svg>