<?xml version="1.0" encoding="UTF-8" standalone="no"?>
<svg
   xmlns:dc="http://purl.org/dc/elements/1.1/"
   xmlns:cc="http://creativecommons.org/ns#"
   xmlns:rdf="http://www.w3.org/1999/02/22-rdf-syntax-ns#"
   xmlns="http://www.w3.org/2000/svg"
   viewBox="0 0 141.33333 113.33333"
   height="113.33333"
   width="141.33333"
   xml:space="preserve"
   id="svg2"
   version="1.1"><metadata
     id="metadata8"><rdf:RDF><cc:Work
         rdf:about=""><dc:format>image/svg+xml</dc:format><dc:type
           rdf:resource="http://purl.org/dc/dcmitype/StillImage" /></cc:Work></rdf:RDF></metadata><defs
     id="defs6"><clipPath
       id="clipPath20"
       clipPathUnits="userSpaceOnUse"><path
         id="path18"
         d="m 0,6.25 h 1060 v 840 H 0 Z" /></clipPath></defs><g
     transform="matrix(1.3333333,0,0,-1.3333333,0,113.33333)"
     id="g10"><g
       transform="scale(0.1)"
       id="g12"><g
         id="g14"><g
           clip-path="url(#clipPath20)"
           id="g16"><path
             id="path22"
             style="fill:#999;fill-opacity:1;fill-rule:nonzero;stroke:none"
             d="M 525.391,677.461 150.621,368.469 c 0,-0.43 -0.07,-1.09 -0.312,-1.949 C 150.121,365.66 150,365.039 150,364.57 V 51.7188 C 150,40.4297 154.102,30.6602 162.379,22.4219 170.621,14.1406 180.391,10 191.68,10 H 441.988 V 260.309 H 608.871 V 10 h 250.27 c 11.289,0 21.058,4.1406 29.3,12.3789 8.278,8.2422 12.418,18.0508 12.418,29.3399 V 364.57 c 0,1.758 -0.238,3.051 -0.66,3.899 z" /><path
             id="path24"
             style="fill:#999;fill-opacity:1;fill-rule:nonzero;stroke:none"
             d="M 1043.55,438.871 900.82,557.5 v 265.941 c 0,6.09 -1.949,11.09 -5.859,15 -3.91,3.899 -8.91,5.848 -15,5.848 H 754.84 c -6.09,0 -11.09,-1.949 -15,-5.848 -3.899,-3.91 -5.86,-8.91 -5.86,-15 V 696.328 L 574.961,829.289 c -13.91,11.289 -30.43,16.961 -49.531,16.961 -19.141,0 -35.629,-5.672 -49.532,-16.961 L 7.23047,438.871 C 2.89063,435.391 0.511719,430.738 0.078125,424.879 -0.351563,419.02 1.17188,413.898 4.64844,409.531 L 45.0391,361.328 c 3.4804,-3.906 8.0507,-6.328 13.6718,-7.187 5.2383,-0.43 10.4688,1.089 15.668,4.57 l 451.0121,376.09 451.058,-376.09 c 3.473,-3.051 8.039,-4.57 13.672,-4.57 h 1.988 c 5.621,0.859 10.161,3.281 13.671,7.187 l 40.43,48.242 c 3.44,4.328 5,9.45 4.53,15.309 -0.43,5.859 -2.85,10.512 -7.19,13.992 z" /></g></g></g></g></svg>