<?xml version="1.0" encoding="UTF-8" standalone="no"?>
<svg
   xmlns:dc="http://purl.org/dc/elements/1.1/"
   xmlns:cc="http://creativecommons.org/ns#"
   xmlns:rdf="http://www.w3.org/1999/02/22-rdf-syntax-ns#"
   xmlns="http://www.w3.org/2000/svg"
   viewBox="0 0 522.66669 524"
   height="524"
   width="522.66669"
   xml:space="preserve"
   id="svg2"
   version="1.1"><metadata
     id="metadata8"><rdf:RDF><cc:Work
         rdf:about=""><dc:format>image/svg+xml</dc:format><dc:type
           rdf:resource="http://purl.org/dc/dcmitype/StillImage" /></cc:Work></rdf:RDF></metadata><defs
     id="defs6" /><g
     transform="matrix(1.3333333,0,0,-1.3333333,0,524)"
     id="g10"><g
       transform="scale(0.1)"
       id="g12"><path
         id="path14"
         style="fill:#999;fill-opacity:1;fill-rule:nonzero;stroke:none"
         d="m 1224.8,2134.79 h 1469.61 c 90.39,0 163.21,72.81 163.21,163.2 V 3766 c 0,90.39 -72.82,163.2 -163.21,163.2 H 1224.8 c -90.39,0 -163.2,-72.81 -163.2,-163.2 V 2298.81 c 0,-90.39 72.81,-164.02 163.2,-164.02 z" /><path
         id="path16"
         style="fill:#999;fill-opacity:1;fill-rule:nonzero;stroke:none"
         d="M 1633.59,1803.61 H 163.199 C 72.8086,1803.61 0,1730.8 0,1640.41 V 173.18 C 0,82.7891 72.8086,9.98047 163.199,9.98047 H 1632.81 c 90.39,0 163.21,72.80863 163.21,163.19953 v 1466.41 c 0.78,90.39 -72.82,164.02 -162.43,164.02 z" /><path
         id="path18"
         style="fill:#999;fill-opacity:1;fill-rule:nonzero;stroke:none"
         d="M 3756.8,1803.61 H 2286.41 c -90.39,0 -163.21,-72.81 -163.21,-163.2 V 173.18 c 0,-90.3909 72.82,-163.19953 163.21,-163.19953 h 1469.61 c 90.39,0 163.2,72.80863 163.2,163.19953 v 1466.41 c 0.78,90.39 -72.03,164.02 -162.42,164.02 z" /></g></g></svg>