<?xml version="1.0" encoding="UTF-8" standalone="no"?>
<svg
   xmlns:dc="http://purl.org/dc/elements/1.1/"
   xmlns:cc="http://creativecommons.org/ns#"
   xmlns:rdf="http://www.w3.org/1999/02/22-rdf-syntax-ns#"
   xmlns="http://www.w3.org/2000/svg"
   viewBox="0 0 66.666664 68"
   height="68"
   width="66.666664"
   xml:space="preserve"
   id="svg2"
   version="1.1"><metadata
     id="metadata8"><rdf:RDF><cc:Work
         rdf:about=""><dc:format>image/svg+xml</dc:format><dc:type
           rdf:resource="http://purl.org/dc/dcmitype/StillImage" /></cc:Work></rdf:RDF></metadata><defs
     id="defs6"><clipPath
       id="clipPath20"
       clipPathUnits="userSpaceOnUse"><path
         id="path18"
         d="m 0,4.23828 h 500 v 500 H 0 Z" /></clipPath></defs><g
     transform="matrix(1.3333333,0,0,-1.3333333,0,68)"
     id="g10"><g
       transform="scale(0.1)"
       id="g12"><g
         id="g14"><g
           clip-path="url(#clipPath20)"
           id="g16"><path
             id="path22"
             style="fill:#999;fill-opacity:1;fill-rule:nonzero;stroke:none"
             d="m 478.711,471.711 c -0.859,9.019 -7.973,16.129 -16.992,16.988 l -168.75,15.473 c -5.547,0.5 -11.059,-1.492 -15,-5.434 L 5.51172,226.238 c -7.35156,-7.308 -7.35156,-19.179 0,-26.488 L 189.73,15.4883 c 7.34,-7.33986 19.219,-7.33986 26.52,0 l 272.5,272.4997 c 3.91,3.91 5.898,9.422 5.43,14.973 z M 423.16,397.762 c -9.762,-9.774 -25.582,-9.774 -35.39,0 -9.758,9.769 -9.758,25.629 0,35.386 9.808,9.774 25.628,9.774 35.39,0 9.77,-9.757 9.77,-25.617 0,-35.386 z" /></g></g></g></g></svg>