<?xml version="1.0" encoding="UTF-8" standalone="no"?>
<svg
   xmlns:dc="http://purl.org/dc/elements/1.1/"
   xmlns:cc="http://creativecommons.org/ns#"
   xmlns:rdf="http://www.w3.org/1999/02/22-rdf-syntax-ns#"
   xmlns="http://www.w3.org/2000/svg"
   viewBox="0 0 156 141.33333"
   height="141.33333"
   width="156"
   xml:space="preserve"
   id="svg2"
   version="1.1"><metadata
     id="metadata8"><rdf:RDF><cc:Work
         rdf:about=""><dc:format>image/svg+xml</dc:format><dc:type
           rdf:resource="http://purl.org/dc/dcmitype/StillImage" /></cc:Work></rdf:RDF></metadata><defs
     id="defs6"><clipPath
       id="clipPath20"
       clipPathUnits="userSpaceOnUse"><path
         id="path18"
         d="M 0,2.83984 H 1170 V 1052.8398 H 0 Z" /></clipPath></defs><g
     transform="matrix(1.3333333,0,0,-1.3333333,0,141.33333)"
     id="g10"><g
       transform="scale(0.1)"
       id="g12"><g
         id="g14"><g
           clip-path="url(#clipPath20)"
           id="g16"><path
             id="path22"
             style="fill:#999;fill-opacity:1;fill-rule:nonzero;stroke:none"
             d="m 535.781,498.82 c 20,47.379 36.918,84.532 50.821,111.442 10.429,20 20.238,36.84 29.339,50.547 9.137,13.671 20.188,27.031 33.239,40.082 13.05,13 28.05,22.808 45,29.328 16.91,6.531 35.82,9.769 56.679,9.769 H 917.73 v -125.16 c 0,-5.617 2.04,-10.539 6.18,-14.648 4.141,-4.141 9.02,-6.211 14.641,-6.211 6.097,0 11.097,1.961 15,5.859 L 1162.11,808.43 c 3.94,3.898 5.9,8.898 5.9,15 0,6.05 -1.96,11.05 -5.9,15 l -207.891,207.89 c -5.239,4.37 -10.469,6.52 -15.668,6.52 -6.09,0 -11.051,-1.95 -15,-5.86 -3.86,-3.91 -5.821,-8.91 -5.821,-15 V 906.859 H 750.859 c -29.531,0 -57.339,-3.589 -83.437,-10.781 -26.051,-7.148 -49.223,-16.289 -69.41,-27.379 -20.203,-11.058 -39.774,-25.937 -58.672,-44.648 -18.91,-18.672 -34.961,-36.723 -48.211,-54.102 -13.238,-17.34 -27.18,-39.097 -41.719,-65.16 -14.57,-26.051 -26.289,-48.898 -35.191,-68.43 -8.91,-19.57 -19.649,-43.679 -32.27,-72.347 C 361.949,516.629 345,479.48 331.09,452.531 320.699,432.57 310.898,415.73 301.801,402.02 c -9.141,-13.668 -20.242,-27.032 -33.25,-40.079 -13.039,-13.05 -28.039,-22.812 -45,-29.332 -16.91,-6.531 -35.821,-9.769 -56.672,-9.769 H 20.8594 c -6.0899,0 -11.08987,-1.949 -15.00002,-5.86 C 1.94922,313.07 0,308.07 0,301.98 V 176.82 c 0,-6.09 1.98828,-11.09 5.89844,-15 3.90234,-3.898 8.90236,-5.859 14.99996,-5.859 H 166.879 c 29.57,0 57.383,3.598 83.43,10.789 26.062,7.141 49.222,16.289 69.421,27.379 20.192,11.051 39.758,25.941 58.668,44.652 18.903,18.668 34.961,36.719 48.243,54.059 13.238,17.379 27.148,39.101 41.679,65.199 14.571,26.051 26.289,48.859 35.2,68.43 8.902,19.57 19.679,43.672 32.261,72.351 z" /><path
             id="path24"
             style="fill:#999;fill-opacity:1;fill-rule:nonzero;stroke:none"
             d="M 20.8594,739.988 H 166.879 c 19.101,0 36.793,-3.168 53.082,-9.449 16.328,-6.289 30,-13.91 41.09,-22.82 11.058,-8.899 22.148,-21.168 33.25,-36.828 11.051,-15.629 19.84,-29.461 26.359,-41.371 6.531,-11.95 14.57,-27.731 24.141,-47.27 33.437,78.641 63.211,137.969 89.301,177.93 C 364.57,857.961 275.469,906.82 166.879,906.82 H 20.8594 c -6.0899,0 -11.08987,-1.949 -15.00002,-5.859 C 1.94922,897.059 0,892.059 0,885.961 V 760.852 c 0,-6.102 1.94922,-11.102 5.85938,-15 3.91015,-3.911 8.91012,-5.864 15.00002,-5.864 z" /><path
             id="path26"
             style="fill:#999;fill-opacity:1;fill-rule:nonzero;stroke:none"
             d="m 954.219,462.289 c -5.239,4.383 -10.43,6.531 -15.668,6.531 -6.09,0 -11.09,-1.961 -14.961,-5.859 -3.899,-3.91 -5.86,-8.91 -5.86,-15 V 322.801 H 750.859 c -19.14,0 -36.839,3.16 -53.129,9.488 -16.281,6.289 -30,13.871 -41.05,22.82 -11.09,8.903 -22.149,21.172 -33.239,36.832 -11.101,15.629 -19.89,29.418 -26.41,41.368 -6.519,11.953 -14.57,27.73 -24.101,47.261 -33.481,-78.199 -63.008,-137.531 -88.629,-177.929 11.719,-16.95 23.859,-32.071 36.48,-45.313 12.578,-13.238 24.528,-24.879 35.86,-34.84 11.289,-10 24.097,-18.707 38.437,-26.097 14.332,-7.379 26.953,-13.551 37.813,-18.551 10.898,-5 24.57,-9.02 41.058,-12.07 16.52,-3.051 30.43,-5.309 41.711,-6.84 11.289,-1.52 26.719,-2.61 46.289,-3.282 19.571,-0.617 35.391,-0.859 47.582,-0.617 12.149,0.188 29.77,0.43 52.809,0.617 23.012,0.243 41.488,0.352 55.39,0.352 V 30.8516 c 0,-5.6719 2.071,-10.5508 6.18,-14.6524 4.141,-4.1406 9.02,-6.21092 14.68,-6.21092 6.101,0 11.101,1.95312 14.961,5.86332 L 1162.15,224.441 c 3.9,3.911 5.86,8.868 5.86,14.957 0,6.102 -1.96,11.102 -5.9,15 z" /></g></g></g></g></svg>